<?xml version="1.0" encoding="UTF-8"?><svg id="Layer_2" xmlns="http://www.w3.org/2000/svg" viewBox="0 0 200 200"><defs><style>.cls-1{fill:#de522b;}.cls-2{fill:#222516;}</style></defs><g id="Layer_1-2"><rect class="cls-2" width="200" height="200"/><g><polygon class="cls-1" points="156.45 10.35 90.12 59.95 120.11 64.6 70.86 123.81 95.83 126.12 51.84 190.63 135.92 113.51 110.41 109.73 152.82 53.83 129.29 50.17 156.45 10.35"/><polygon class="cls-1" points="61.6 49.16 64.42 62.76 78.02 65.57 64.42 68.39 61.6 81.99 58.78 68.39 45.18 65.57 58.78 62.76 61.6 49.16"/><polygon class="cls-1" points="136.74 145.76 138.91 156.2 149.34 158.36 138.91 160.52 136.74 170.96 134.58 160.52 124.14 158.36 134.58 156.2 136.74 145.76"/></g></g></svg>